<svg width="42" height="42" viewBox="0 0 42 42" fill="none" xmlns="http://www.w3.org/2000/svg">
<path d="M0.8274 29.771C0.8274 29.771 16.6908 39.6783 19.9164 41.692C20.2629 41.909 20.6157 42 20.9496 42C21.3234 42 21.672 41.8857 21.966 41.7037C25.2126 39.69 41.1915 29.7733 41.1915 29.7733C41.7081 29.4513 42 28.8563 42 28.2427C42 26.922 40.7106 26.0633 39.6564 26.7167C39.6564 26.7167 24.8472 35.952 21.7245 37.8467C21.2814 38.115 20.7921 38.2223 20.2083 37.8607C16.7454 35.6953 2.3709 26.719 2.3709 26.719C1.3167 26.061 0.0252002 26.9173 0.0252002 28.2427C0.0252002 28.854 0.3129 29.449 0.8274 29.771ZM0.8274 22.5073C0.8274 22.5073 16.6908 32.4147 19.9164 34.4283C20.2629 34.6453 20.6157 34.7363 20.9496 34.7363C21.3234 34.7363 21.672 34.622 21.966 34.44C25.2126 32.4263 41.1915 22.5097 41.1915 22.5097C41.7081 22.1877 42 21.5927 42 20.979C42 19.6583 40.7106 18.7997 39.6564 19.453C39.6564 19.453 24.8472 28.6883 21.7245 30.583C21.2814 30.8513 20.7921 30.9587 20.2083 30.597C16.7454 28.4317 2.3709 19.4553 2.3709 19.4553C1.3167 18.7973 0.0252002 19.6537 0.0252002 20.979C0.0252002 21.5903 0.3129 22.1853 0.8274 22.5073ZM22.3965 0.445667C21.8799 0.147 21.4074 0 20.9433 0C20.475 0 20.013 0.151667 19.5258 0.445667L0.8694 12.124C0.2898 12.551 0 13.16 0 13.7527C0 14.35 0.2919 14.931 0.8694 15.302L19.5258 26.9827C19.9899 27.293 20.4645 27.4563 20.9496 27.4563C21.4179 27.4563 21.8988 27.3047 22.3965 26.9827L41.0529 15.302C41.6724 14.9147 42 14.3197 42 13.7153C42 13.132 41.6955 12.5417 41.0529 12.124L22.3965 0.445667ZM4.7481 13.713L20.9622 3.56533L37.1742 13.713L20.9622 23.863L4.7481 13.713Z" fill="#CCCCCC"/>
</svg>
