<svg width="85" height="19" viewBox="0 0 85 19" fill="none" xmlns="http://www.w3.org/2000/svg">
<path d="M8.92897 12.4943V4.90909H12.0142V18H9.02272V15.6733H8.88636C8.5909 16.4063 8.10511 17.0057 7.42897 17.4716C6.75852 17.9375 5.93181 18.1705 4.94886 18.1705C4.0909 18.1705 3.33238 17.9801 2.67329 17.5994C2.01988 17.2131 1.50852 16.6534 1.1392 15.9205C0.769879 15.1818 0.58522 14.2898 0.58522 13.2443V4.90909H3.67045V12.767C3.67045 13.5966 3.89772 14.2557 4.35227 14.7443C4.80681 15.233 5.4034 15.4773 6.14204 15.4773C6.59658 15.4773 7.03693 15.3665 7.46306 15.1449C7.8892 14.9233 8.23863 14.5938 8.51136 14.1563C8.78977 13.7131 8.92897 13.1591 8.92897 12.4943Z" fill="#2F2513"/>
<path d="M17.8885 18L14.1896 4.90909H17.3345L19.6356 14.1136H19.755L22.1072 4.90909H25.218L27.5703 14.0625H27.6981L29.9652 4.90909H33.1186L29.4112 18H26.1981L23.7436 9.15341H23.5646L21.1101 18H17.8885Z" fill="#2F2513"/>
<path d="M40.6079 18.2557C39.3295 18.2557 38.2216 17.9744 37.2841 17.4119C36.3466 16.8494 35.6193 16.0625 35.1023 15.0511C34.5909 14.0398 34.3352 12.858 34.3352 11.5057C34.3352 10.1534 34.5909 8.96875 35.1023 7.95171C35.6193 6.93466 36.3466 6.14489 37.2841 5.58239C38.2216 5.01989 39.3295 4.73864 40.6079 4.73864C41.8864 4.73864 42.9943 5.01989 43.9318 5.58239C44.8693 6.14489 45.5937 6.93466 46.1051 7.95171C46.6222 8.96875 46.8807 10.1534 46.8807 11.5057C46.8807 12.858 46.6222 14.0398 46.1051 15.0511C45.5937 16.0625 44.8693 16.8494 43.9318 17.4119C42.9943 17.9744 41.8864 18.2557 40.6079 18.2557ZM40.625 15.7841C41.3182 15.7841 41.8977 15.5938 42.3636 15.2131C42.8295 14.8267 43.1761 14.3097 43.4034 13.6619C43.6364 13.0142 43.7528 12.2926 43.7528 11.4972C43.7528 10.696 43.6364 9.97159 43.4034 9.32387C43.1761 8.67046 42.8295 8.15057 42.3636 7.76421C41.8977 7.37784 41.3182 7.18466 40.625 7.18466C39.9148 7.18466 39.3239 7.37784 38.8523 7.76421C38.3864 8.15057 38.0369 8.67046 37.804 9.32387C37.5767 9.97159 37.4631 10.696 37.4631 11.4972C37.4631 12.2926 37.5767 13.0142 37.804 13.6619C38.0369 14.3097 38.3864 14.8267 38.8523 15.2131C39.3239 15.5938 39.9148 15.7841 40.625 15.7841Z" fill="#2F2513"/>
<path d="M49.4993 18V4.90909H52.4908V7.09091H52.6271C52.8658 6.33523 53.2749 5.75284 53.8544 5.34375C54.4396 4.92898 55.1072 4.72159 55.8572 4.72159C56.0277 4.72159 56.218 4.73011 56.4283 4.74716C56.6442 4.75852 56.8231 4.77841 56.9652 4.80682V7.64489C56.8345 7.59943 56.6271 7.55966 56.343 7.52557C56.0646 7.4858 55.7947 7.46591 55.5334 7.46591C54.9709 7.46591 54.4652 7.58807 54.0163 7.83239C53.5731 8.07102 53.2237 8.40341 52.968 8.82955C52.7124 9.25568 52.5845 9.74716 52.5845 10.304V18H49.4993Z" fill="#2F2513"/>
<path d="M63.3338 18.2301C62.3054 18.2301 61.3849 17.9659 60.5724 17.4375C59.7599 16.9091 59.1179 16.142 58.6463 15.1364C58.1747 14.1307 57.9389 12.9091 57.9389 11.4716C57.9389 10.017 58.1776 8.78977 58.6548 7.78977C59.1378 6.78409 59.7883 6.02557 60.6065 5.51421C61.4247 4.99716 62.3366 4.73864 63.3423 4.73864C64.1094 4.73864 64.74 4.86932 65.2344 5.13068C65.7287 5.38636 66.1207 5.69602 66.4105 6.05966C66.7003 6.41762 66.9247 6.75568 67.0838 7.07387H67.2116V0.545456H70.3054V18H67.2713V15.9375H67.0838C66.9247 16.2557 66.6946 16.5938 66.3935 16.9517C66.0923 17.304 65.6946 17.6051 65.2003 17.8551C64.706 18.1051 64.0838 18.2301 63.3338 18.2301ZM64.1946 15.6989C64.848 15.6989 65.4048 15.5227 65.8651 15.1705C66.3253 14.8125 66.6747 14.3153 66.9133 13.679C67.152 13.0426 67.2713 12.3011 67.2713 11.4545C67.2713 10.608 67.152 9.87216 66.9133 9.24716C66.6804 8.62216 66.3338 8.13636 65.8736 7.78977C65.419 7.44318 64.8594 7.26989 64.1946 7.26989C63.5071 7.26989 62.9332 7.44886 62.473 7.80682C62.0128 8.16477 61.6662 8.65909 61.4332 9.28977C61.2003 9.92046 61.0838 10.642 61.0838 11.4545C61.0838 12.2727 61.2003 13.0028 61.4332 13.6449C61.6719 14.2813 62.0213 14.7841 62.4815 15.1534C62.9474 15.517 63.5185 15.6989 64.1946 15.6989Z" fill="#2F2513"/>
<path d="M83.9396 8.36932L81.1271 8.67614C81.0476 8.39205 80.9084 8.125 80.7095 7.875C80.5163 7.625 80.255 7.4233 79.9254 7.26989C79.5959 7.11648 79.1925 7.03977 78.7152 7.03977C78.0731 7.03977 77.5334 7.17898 77.0959 7.45739C76.6641 7.7358 76.451 8.09659 76.4567 8.53977C76.451 8.92046 76.5902 9.23012 76.8743 9.46875C77.1641 9.70739 77.6413 9.90341 78.3061 10.0568L80.5391 10.5341C81.7777 10.8011 82.6981 11.2244 83.3004 11.804C83.9084 12.3835 84.2152 13.142 84.2209 14.0795C84.2152 14.9034 83.9737 15.6307 83.4964 16.2614C83.0249 16.8864 82.3686 17.375 81.5277 17.7273C80.6868 18.0795 79.7209 18.2557 78.63 18.2557C77.0277 18.2557 75.7379 17.9205 74.7606 17.25C73.7834 16.5739 73.201 15.6335 73.0135 14.429L76.022 14.1392C76.1584 14.7301 76.4481 15.1761 76.8913 15.4773C77.3345 15.7784 77.9112 15.929 78.6214 15.929C79.3544 15.929 79.9425 15.7784 80.3856 15.4773C80.8345 15.1761 81.0589 14.804 81.0589 14.3608C81.0589 13.9858 80.9141 13.6761 80.6243 13.4318C80.3402 13.1875 79.897 13 79.2947 12.8693L77.0618 12.4006C75.8061 12.1392 74.8771 11.6989 74.2748 11.0795C73.6726 10.4545 73.3743 9.66477 73.38 8.71023C73.3743 7.90341 73.593 7.20455 74.0362 6.61364C74.4851 6.01705 75.1072 5.55682 75.9027 5.23296C76.7038 4.90341 77.6271 4.73864 78.6726 4.73864C80.2067 4.73864 81.4141 5.06534 82.2947 5.71875C83.1811 6.37216 83.7294 7.25568 83.9396 8.36932Z" fill="#2F2513"/>
</svg>
